
<svg version="1.1" class="icon-AsCoConsulting" xmlns="http://www.w3.org/2000/svg" xmlns:xlink="http://www.w3.org/1999/xlink" x="0px" y="0px"
	 viewBox="0 0 118.9 40"  xml:space="preserve">

<g>
	<g>
		<g>
			<path class='svg-color1' d="M29.2,32.1h-1.7l-0.7-1.9h-1.5h-1.5l-0.7,1.9h-1.7l3.1-7.8h0.8h0.8L29.2,32.1z M26.4,29l-1.1-3l-1.1,3h1.1
				H26.4z"/>
			<path class='svg-color1'  d="M31.7,30.8c0.4,0,0.6-0.1,0.8-0.2c0.2-0.2,0.3-0.4,0.3-0.6c0-0.2-0.1-0.4-0.2-0.6c-0.2-0.2-0.5-0.4-0.9-0.5
				c-0.7-0.2-1.1-0.5-1.5-0.9c-0.4-0.4-0.6-0.9-0.6-1.4c0-0.3,0.1-0.6,0.2-0.9c0.1-0.3,0.3-0.5,0.6-0.7c0.2-0.2,0.5-0.3,0.8-0.5
				c0.3-0.1,0.7-0.2,1-0.2c0.2,0,0.4,0,0.6,0c0.2,0,0.3,0.1,0.5,0.1c0.1,0,0.3,0.1,0.4,0.1c0.1,0,0.2,0.1,0.2,0.1l0.2,0.1l-0.5,1.3
				L33.4,26c-0.4-0.2-0.8-0.3-1.2-0.3c-0.2,0-0.3,0-0.5,0.1c-0.1,0-0.2,0.1-0.3,0.2c-0.1,0.1-0.1,0.2-0.2,0.2c0,0.1,0,0.2,0,0.3
				c0,0.2,0.1,0.4,0.2,0.6c0.1,0.1,0.2,0.2,0.4,0.2c0.2,0.1,0.4,0.2,0.6,0.3c0.4,0.1,0.6,0.3,0.9,0.4c0.2,0.1,0.4,0.3,0.6,0.5
				c0.4,0.4,0.5,0.9,0.5,1.5c0,0.3-0.1,0.6-0.2,0.9c-0.1,0.3-0.3,0.5-0.5,0.7c-0.2,0.2-0.5,0.4-0.9,0.5c-0.3,0.1-0.7,0.2-1.2,0.2
				c-0.2,0-0.4,0-0.6,0c-0.2,0-0.4-0.1-0.5-0.1c-0.2,0-0.3-0.1-0.5-0.2c-0.1-0.1-0.3-0.1-0.4-0.2l-0.2-0.1l0.4-1.4l0.4,0.2
				c0.2,0.1,0.4,0.2,0.7,0.3C31.2,30.8,31.4,30.8,31.7,30.8z"/>
			<path class='svg-color1'  d="M39.4,30.9h-1.2l-0.4-0.5c-0.2,0.2-0.4,0.3-0.7,0.5c-0.2,0.1-0.5,0.2-0.8,0.2c-0.2,0-0.4,0-0.6-0.1
				c-0.2-0.1-0.3-0.2-0.5-0.3c-0.1-0.1-0.2-0.3-0.3-0.5c-0.1-0.2-0.1-0.4-0.1-0.6c0-0.3,0.1-0.5,0.2-0.7c0.1-0.2,0.3-0.4,0.5-0.6
				l0.3-0.2c-0.1-0.2-0.2-0.3-0.3-0.5c-0.1-0.2-0.1-0.4-0.1-0.6c0-0.2,0-0.4,0.1-0.5c0.1-0.2,0.2-0.3,0.3-0.4
				c0.1-0.1,0.3-0.2,0.4-0.2c0.2-0.1,0.3-0.1,0.5-0.1c0.2,0,0.3,0,0.5,0.1c0.2,0.1,0.3,0.1,0.4,0.2c0.1,0.1,0.2,0.2,0.3,0.4
				c0.1,0.2,0.1,0.3,0.1,0.5c0,0.1,0,0.3-0.1,0.4c0,0.1-0.1,0.2-0.2,0.3c-0.1,0.1-0.2,0.2-0.3,0.3c-0.1,0.1-0.2,0.2-0.3,0.2l0.7,0.9
				l0.5-0.6l0.6,0.6l-0.5,0.7L39.4,30.9z M36.5,30.3c0.1,0,0.2,0,0.2,0c0.1,0,0.1-0.1,0.2-0.1c0.1,0,0.1-0.1,0.2-0.2
				c0.1-0.1,0.1-0.1,0.2-0.2l-0.8-1.1c-0.1,0.1-0.1,0.1-0.2,0.2c-0.1,0.1-0.1,0.1-0.2,0.2c-0.1,0.1-0.1,0.1-0.1,0.2
				c0,0.1-0.1,0.2-0.1,0.3c0,0.1,0,0.2,0.1,0.3c0,0.1,0.1,0.2,0.1,0.2c0.1,0.1,0.1,0.1,0.2,0.2C36.3,30.2,36.4,30.3,36.5,30.3z
				 M36.8,26.4c-0.2,0-0.3,0.1-0.4,0.2c-0.1,0.1-0.1,0.2-0.1,0.4c0,0.2,0.1,0.3,0.1,0.4l0.3,0.4l0.2-0.2c0.1-0.1,0.2-0.2,0.2-0.3
				c0.1-0.1,0.1-0.2,0.1-0.4c0-0.1,0-0.1,0-0.2c0-0.1-0.1-0.1-0.1-0.2c0-0.1-0.1-0.1-0.1-0.1C37,26.4,36.9,26.4,36.8,26.4z"/>
			<path class='svg-color1'  d="M42.6,24.2c0.3,0,0.7,0.1,1,0.2c0.2,0.1,0.3,0.1,0.4,0.2c0.1,0.1,0.3,0.2,0.4,0.3c0.3,0.3,0.5,0.5,0.6,0.9
				c0.2,0.3,0.3,0.7,0.3,1.1l0,0.1l-1.4,0.1l0-0.1c-0.1-0.5-0.3-0.9-0.5-1.1c-0.2-0.2-0.6-0.4-1-0.4h-0.1c-0.2,0-0.4,0.1-0.6,0.2
				c-0.2,0.1-0.3,0.3-0.5,0.5c-0.3,0.4-0.5,1.1-0.5,1.9c0,0.9,0.2,1.5,0.5,1.9c0.1,0.2,0.3,0.3,0.5,0.4c0.2,0.1,0.4,0.2,0.6,0.2h0.1
				c0.4,0,0.8-0.1,1-0.4c0.2-0.2,0.4-0.6,0.5-1.1l0-0.1l1.4,0.2l0,0.1c-0.1,0.4-0.2,0.8-0.3,1.1c-0.2,0.3-0.4,0.6-0.6,0.8
				c-0.1,0.1-0.3,0.2-0.4,0.3c-0.1,0.1-0.3,0.2-0.4,0.2c-0.2,0.1-0.3,0.1-0.5,0.1c-0.2,0-0.4,0-0.5,0c-0.5,0-0.9-0.1-1.3-0.3
				c-0.4-0.2-0.7-0.4-1-0.8c-0.3-0.4-0.5-0.8-0.6-1.3c-0.1-0.5-0.2-1-0.2-1.6v0c0-0.3,0-0.6,0.1-0.8c0-0.1,0-0.2,0.1-0.4
				c0-0.1,0.1-0.2,0.1-0.4c0.1-0.5,0.3-0.9,0.6-1.3c0.3-0.4,0.6-0.7,1-0.8C41.7,24.2,42.2,24.2,42.6,24.2z"/>
			<path class='svg-color1'  d="M52.4,26.6c0.2,0.5,0.2,1,0.2,1.6c0,0.6-0.1,1.1-0.2,1.6c-0.1,0.2-0.2,0.5-0.3,0.7c-0.1,0.2-0.2,0.4-0.4,0.6
				c-0.3,0.3-0.6,0.6-1,0.8c-0.4,0.2-0.8,0.3-1.3,0.3c-0.2,0-0.5,0-0.7-0.1c-0.2,0-0.4-0.1-0.6-0.2c-0.4-0.2-0.7-0.5-1-0.8
				c-0.1-0.2-0.3-0.4-0.4-0.6c-0.1-0.2-0.2-0.4-0.3-0.7c-0.2-0.5-0.2-1-0.2-1.6c0-0.6,0.1-1.1,0.2-1.6c0.1-0.2,0.2-0.5,0.3-0.7
				c0.1-0.2,0.2-0.4,0.4-0.6c0.3-0.4,0.6-0.6,1-0.8c0.2-0.1,0.4-0.2,0.6-0.2c0.2,0,0.4-0.1,0.7-0.1c0.5,0,0.9,0.1,1.3,0.3
				c0.4,0.2,0.7,0.5,1,0.8c0.1,0.2,0.3,0.4,0.4,0.6C52.3,26.1,52.3,26.3,52.4,26.6z M50.2,30.5c0.2-0.1,0.4-0.3,0.6-0.5
				c0.2-0.2,0.3-0.5,0.4-0.8c0-0.2,0.1-0.3,0.1-0.5c0-0.2,0-0.4,0-0.6c0-0.2,0-0.4,0-0.6c0-0.2-0.1-0.3-0.1-0.5
				c-0.1-0.3-0.2-0.6-0.4-0.8c-0.2-0.2-0.4-0.4-0.6-0.5c-0.2-0.1-0.5-0.2-0.7-0.2c-0.3,0-0.5,0.1-0.8,0.2c-0.2,0.1-0.4,0.3-0.6,0.5
				c-0.2,0.2-0.3,0.5-0.4,0.8c0,0.1-0.1,0.3-0.1,0.5c0,0.2,0,0.4,0,0.6c0,0.2,0,0.4,0,0.6c0,0.2,0.1,0.3,0.1,0.5
				c0.1,0.3,0.2,0.6,0.4,0.8c0.2,0.2,0.3,0.4,0.6,0.5c0.2,0.1,0.5,0.2,0.8,0.2C49.7,30.6,50,30.6,50.2,30.5z"/>
			<g>
				<path class='svg-color1'  d="M60.4,31.5c-0.3,0.2-1,0.4-1.9,0.4c-2.1,0-3.6-1.3-3.6-3.7c0-2.3,1.6-3.9,3.9-3.9c0.9,0,1.5,0.2,1.8,0.3
					l-0.2,0.8c-0.4-0.2-0.9-0.3-1.5-0.3c-1.7,0-2.9,1.1-2.9,3c0,1.8,1,3,2.8,3c0.6,0,1.2-0.1,1.6-0.3L60.4,31.5z"/>
				<path class='svg-color1'  d="M66.6,29c0,2-1.4,2.8-2.6,2.8c-1.4,0-2.6-1.1-2.6-2.7c0-1.8,1.2-2.8,2.6-2.8C65.6,26.3,66.6,27.4,66.6,29z
					 M62.4,29.1c0,1.2,0.7,2,1.6,2c0.9,0,1.6-0.9,1.6-2.1c0-0.9-0.5-2-1.6-2C62.9,27,62.4,28.1,62.4,29.1z"/>
				<path class='svg-color1'  d="M68.2,27.8c0-0.5,0-1,0-1.4H69l0.1,0.9h0c0.3-0.5,0.9-1,1.7-1c0.7,0,1.9,0.4,1.9,2.3v3.2h-1v-3.1
					c0-0.9-0.3-1.6-1.2-1.6c-0.6,0-1.1,0.4-1.3,1c0,0.1-0.1,0.3-0.1,0.5v3.2h-1V27.8z"/>
				<path class='svg-color1'  d="M74.5,30.7c0.3,0.2,0.8,0.4,1.3,0.4c0.7,0,1-0.3,1-0.8c0-0.5-0.3-0.7-1-1c-1-0.3-1.4-0.9-1.4-1.5
					c0-0.9,0.7-1.6,1.8-1.6c0.5,0,1,0.2,1.3,0.3l-0.2,0.7c-0.2-0.1-0.6-0.3-1.1-0.3c-0.6,0-0.9,0.3-0.9,0.7c0,0.4,0.3,0.6,1,0.9
					c0.9,0.4,1.4,0.8,1.4,1.6c0,0.9-0.7,1.6-2,1.6c-0.6,0-1.1-0.1-1.5-0.4L74.5,30.7z"/>
				<path class='svg-color1'  d="M83.8,30.3c0,0.5,0,1,0,1.4H83L83,30.8h0c-0.3,0.4-0.8,1-1.8,1c-0.8,0-1.8-0.5-1.8-2.3v-3.1h1v2.9
					c0,1,0.3,1.7,1.2,1.7c0.6,0,1.1-0.4,1.3-0.9c0.1-0.1,0.1-0.3,0.1-0.5v-3.3h1V30.3z"/>
				<path class='svg-color1'  d="M85.8,23.9h1v7.8h-1V23.9z"/>
				<path class='svg-color1'  d="M89.9,24.9v1.5h1.4v0.7h-1.4V30c0,0.7,0.2,1,0.7,1c0.3,0,0.4,0,0.6-0.1l0,0.7c-0.2,0.1-0.5,0.1-0.9,0.1
					c-0.4,0-0.8-0.1-1-0.4C89.1,31.1,89,30.7,89,30v-2.9h-0.8v-0.7H89v-1.3L89.9,24.9z"/>
				<path class='svg-color1'  d="M93.9,24.9c0,0.3-0.2,0.6-0.6,0.6c-0.3,0-0.6-0.3-0.6-0.6c0-0.3,0.3-0.6,0.6-0.6
					C93.6,24.3,93.9,24.6,93.9,24.9z M92.8,31.7v-5.3h1v5.3H92.8z"/>
				<path class='svg-color1'  d="M95.7,27.8c0-0.5,0-1,0-1.4h0.9l0.1,0.9h0c0.3-0.5,0.9-1,1.8-1c0.7,0,1.9,0.4,1.9,2.3v3.2h-1v-3.1
					c0-0.9-0.3-1.6-1.2-1.6c-0.6,0-1.1,0.4-1.3,1c0,0.1-0.1,0.3-0.1,0.5v3.2h-1V27.8z"/>
				<path class='svg-color1'  d="M106.8,26.4c0,0.4,0,0.8,0,1.5v3.1c0,1.2-0.2,2-0.8,2.4c-0.5,0.5-1.3,0.6-1.9,0.6c-0.6,0-1.3-0.2-1.8-0.4
					l0.2-0.7c0.4,0.2,0.9,0.4,1.6,0.4c1,0,1.7-0.5,1.7-1.9v-0.6h0c-0.3,0.5-0.9,0.9-1.7,0.9c-1.3,0-2.3-1.1-2.3-2.6
					c0-1.8,1.2-2.8,2.4-2.8c0.9,0,1.4,0.5,1.7,0.9h0l0-0.8H106.8z M105.8,28.5c0-0.2,0-0.3,0-0.4c-0.2-0.6-0.7-1-1.4-1
					c-0.9,0-1.6,0.8-1.6,2c0,1,0.5,1.9,1.6,1.9c0.6,0,1.1-0.4,1.3-1c0.1-0.2,0.1-0.4,0.1-0.5V28.5z"/>
			</g>
		</g>
		<path class='svg-color1'  d="M15.2,24.3c0,0-3.1,7.9-3.1,7.9l0,0v0l0,0l0,0l2.3-2.5c0,0,0,0,0,0c0.2-0.1,0.8-0.3,0.8-0.3
			c0,0,0.6,0.2,0.8,0.3l2.3,2.5C18.2,32.1,15.2,24.4,15.2,24.3z"/>
	</g>
	<g>
		<path class='svg-color1'  d="M52.3,8.2c0.5-0.3,0.9-0.6,1.2-1c0.5-0.5,0.7-0.9,0.7-1.4c0-0.2-0.1-0.4-0.4-0.4c-0.5,0-0.9,0.2-1.3,0.7
			C52.2,6.7,52,7.2,52,7.7c0,0.2,0,0.3,0.1,0.6H52.3z"/>
		<path class='svg-color1'  d="M37,10.7c0.1,0,0.3-0.1,0.8-0.2c0.4-0.2,0.7-0.3,0.7-0.3c-0.2-0.2-0.4-0.2-0.7-0.2c-0.2,0-0.5,0-0.7,0.1
			c-0.3,0.1-0.4,0.3-0.4,0.5c0,0.1,0,0.1,0.1,0.2H37z"/>
		<path class='svg-color1'  d="M51,11.6c0.1,0,0.2,0,0.5-0.1c0.2-0.1,0.4-0.1,0.5-0.2c0.3-0.2,0.6-0.4,0.8-0.6c-0.1-0.1-0.2-0.4-0.4-0.8
			c-0.1-0.4-0.3-0.6-0.5-0.6c-0.2,0-0.5,0.2-0.9,0.7c-0.4,0.4-0.6,0.8-0.6,1C50.3,11.4,50.5,11.6,51,11.6z"/>
		<path class='svg-color1'  d="M75,15.9c0.3,0.1,0.5,0.1,0.8,0.1c0.5,0,0.9-0.1,1.1-0.2c0.1-0.1,0.2-0.2,0.3-0.2c0.1,0,0.1-0.1,0.3-0.2
			c0.3-0.2,0.6-0.6,0.8-1.1c0.2-0.5,0.3-0.9,0.3-1.3c0-0.1,0-0.2-0.1-0.3h-0.2c-0.1,0-0.2,0.1-0.3,0.3c-0.2,0-0.4,0.1-0.7,0.1
			c-1.2,0.3-2.2,0.6-3,1.1c-0.4,0.2-0.6,0.5-0.6,0.8C73.8,15.4,74.2,15.7,75,15.9z"/>
		<path class='svg-color1'  d="M84.9,10.7c0.1,0,0.3-0.1,0.8-0.2c0.4-0.2,0.7-0.3,0.7-0.3C86.3,10,86,9.9,85.7,9.9c-0.2,0-0.5,0-0.7,0.1
			c-0.3,0.1-0.4,0.3-0.4,0.5c0,0.1,0,0.1,0.1,0.2H84.9z"/>
		<path class='svg-color1'  d="M66.8,10.7H67c0.1,0,0.3-0.1,0.8-0.2c0.4-0.2,0.7-0.3,0.7-0.3c-0.2-0.2-0.4-0.2-0.7-0.2c-0.2,0-0.5,0-0.7,0.1
			c-0.3,0.1-0.4,0.3-0.4,0.5C66.7,10.6,66.7,10.7,66.8,10.7z"/>
		<path class='svg-color1'  d="M23.8,10.7c0.1,0,0.3-0.1,0.8-0.2c0.4-0.2,0.7-0.3,0.7-0.3c-0.2-0.2-0.4-0.2-0.7-0.2c-0.2,0-0.5,0-0.7,0.1
			c-0.3,0.1-0.4,0.3-0.4,0.5c0,0.1,0,0.1,0.1,0.2H23.8z"/>
		<path class='svg-color1'  d="M74.6,0L74.6,0H0v40h74.6h0.1h44.2V0H74.6z M103.8,9.7h0.2c0.2,0.9,0.5,1.3,0.9,1.3c0.3,0,0.7-0.2,1.1-0.5
			l0.7-0.5c0.2,0.1,0.3,0.2,0.3,0.4c0,0,0,0.1-0.1,0.2c0,0.1-0.1,0.2-0.1,0.2c0,0,0,0,0,0c0,0.1,0,0.2,0,0.3
			c-0.1,0.3-0.3,0.8-0.5,1.5c-0.1,0.1-0.2,0.4-0.4,0.8c0,0,0,0,0,0v0c0,0-0.1,0.2-0.2,0.7c-0.1,0.2-0.2,0.5-0.4,0.9
			c0,0.1-0.1,0.3-0.1,0.5c0,0,0,0.1-0.1,0.3c-0.1,0.1-0.1,0.2-0.1,0.3c0,0,0,0,0,0.1c-0.1,0.1-0.2,0.2-0.3,0.3h-0.2
			c-0.1-0.2-0.1-0.3-0.1-0.3c0-0.3,0.2-0.9,0.5-1.8c0.1-0.4,0.3-0.8,0.5-1.3c0.1-0.1,0.2-0.4,0.3-0.7c0.1-0.2,0.1-0.3,0.2-0.4
			c0.1-0.1,0.1-0.3,0.3-0.7c0,0,0,0,0,0c0,0,0-0.1,0-0.1c0,0,0,0,0-0.1c0,0,0,0,0,0c0,0-0.2,0.1-0.5,0.2c-0.3,0.1-0.5,0.2-0.5,0.2
			c-0.1,0-0.2,0-0.4,0.1c-0.2,0-0.4,0.1-0.4,0.1c-0.2,0-0.4-0.2-0.6-0.5c-0.2-0.3-0.2-0.6-0.2-0.9C103.6,10,103.7,9.9,103.8,9.7z
			 M97.9,11.6c0.2-0.1,0.5-0.1,1-0.1c0.3,0,0.8-0.1,1.7-0.2c0.3,0,0.7-0.2,1.3-0.4c0.6-0.2,0.9-0.5,0.9-0.6c0,0,0,0,0,0
			c0-0.2-0.2-0.3-0.6-0.4c-0.3-0.1-0.6-0.1-0.8-0.1c0,0,0,0-0.1,0l-2.8,0.5c0,0,0,0-0.1,0c-0.1,0-0.3,0-0.5-0.1V9
			c0-0.4,0-0.9,0.1-1.5l0.2-2.4c0-0.3,0.1-0.5,0.2-0.7h0.2c0.1,0.1,0.1,0.3,0.1,0.5c0,0,0,0.1,0,0.1l-0.3,4.4c0,0,0,0,0,0
			c0,0.1,0,0.1,0.1,0.2c0.1,0.1,0.1,0.1,0.2,0.1c0,0,0.3,0,0.8-0.1l1.6-0.2c0.4,0,0.6-0.1,0.6-0.1c0.4,0,0.7,0.1,1.1,0.2
			c0.4,0.2,0.6,0.4,0.6,0.8c0,0.2-0.2,0.5-0.7,0.7c-0.3,0.2-0.7,0.4-1,0.5c-0.3,0.1-0.7,0.2-1.1,0.2c-0.1,0-0.5,0.1-1.2,0.1
			c-0.1,0-0.3,0-0.6,0.1C98.2,12,98,12,97.9,12c-0.1,0-0.2,0-0.3-0.1C97.7,11.7,97.8,11.6,97.9,11.6z M88.7,10.8
			c0,0,0.2-0.1,0.5-0.2c0.7-0.3,1.2-0.5,1.7-0.6c0.2,0,0.3-0.1,0.6-0.2c0.3-0.1,0.5-0.2,0.6-0.2l0.5-0.1c0.2,0,0.3-0.1,0.4-0.2
			c-0.1-1-0.1-2.2-0.1-3.6c0-0.8,0.1-1.3,0.2-1.3c0.1,0,0.2,0.1,0.2,0.1c0.1,0.1,0.1,0.2,0.1,0.4c0,0,0,0,0,0v0c0,0,0,0,0,0
			c0,0,0,0.3,0,0.9l0,2.8c0,0.3,0,0.7,0.1,1c-0.4,0.2-0.9,0.4-1.7,0.6c-0.7,0.2-1.2,0.4-1.3,0.4c-0.7,0.2-1.1,0.4-1.2,0.6
			c0,0.1,0,0.1,0.1,0.2c0.1,0.1,0.4,0.1,0.9,0.1c0.2,0,0.5-0.1,1.1-0.2c0.8-0.2,1.5-0.3,2.1-0.5c0,0.2-0.1,0.3-0.2,0.3
			c-0.1,0.1-0.5,0.2-1.3,0.4c-0.8,0.2-1.2,0.3-1.3,0.3c0,0-0.2,0-0.4,0c-0.2,0-0.4,0-0.4,0c-0.2,0-0.5-0.1-0.8-0.2
			c-0.3-0.1-0.5-0.3-0.5-0.5C88.5,11.1,88.5,10.9,88.7,10.8z M84.6,9.7c0.3-0.2,0.7-0.3,1.1-0.3c0.4,0,0.7,0.1,0.9,0.2
			c0.2,0.2,0.3,0.4,0.3,0.7c0,0.2-0.3,0.3-0.8,0.5c-0.4,0.2-0.8,0.2-1,0.2c0,0,0,0-0.1,0c0,0,0,0.1-0.1,0.1c0,0.1,0.2,0.1,0.5,0.2
			c0.3,0.1,0.4,0.1,0.6,0.1h1.3c0,0,0.2,0,0.5,0.1c0.1,0.1,0.2,0.1,0.2,0.2C88,11.9,87.9,12,87.7,12h-1.5c-0.3,0-0.7-0.1-1.1-0.2
			c-0.5-0.1-0.9-0.3-0.9-0.5c-0.1-0.2-0.1-0.4-0.1-0.7C84.1,10.3,84.2,9.9,84.6,9.7z M79.7,11.8c0-0.1,0.3-0.4,0.8-0.9
			c0.4-0.4,0.8-0.7,1.3-1c0.6-0.4,1.1-0.6,1.4-0.6c0.1,0,0.2,0,0.2,0.1c0.1,0.1,0.1,0.2,0.1,0.3c0,0.1,0,0.4-0.1,1
			c-0.1,0.5-0.1,1-0.2,1.6c0,0-0.1,0.1-0.1,0.1c-0.1,0-0.2-0.1-0.3-0.4c-0.1-0.2-0.1-0.4-0.1-0.6c0-0.1,0-0.3,0.1-0.7
			c0.1-0.4,0.1-0.6,0.1-0.7c0-0.2,0-0.2-0.1-0.2c-0.1,0-0.4,0.1-0.7,0.3c-0.3,0.2-0.6,0.3-0.7,0.4c-0.3,0.2-0.6,0.5-1,0.9
			c-0.1,0.1-0.2,0.2-0.3,0.4c-0.1,0.1-0.2,0.1-0.4,0.1V11.8z M74.6,7.8c0.1,0,0.2,0.1,0.5,0.2l0,0c0,0.1-0.1,0.2-0.3,0.4
			c-0.1,0-0.2-0.1-0.4-0.3C74.4,7.9,74.5,7.8,74.6,7.8z M74.6,9.9c0.1,0,0.1,0.1,0.1,0.2c0,0,0,0,0,0c0,0,0,0,0,0.1c0,0,0,0,0,0
			c0,0,0,0.1,0,0.1c0,0.2,0,0.5-0.1,1c0,0.4-0.1,0.7-0.1,0.8c-0.1,0.1-0.3,0.1-0.4,0.1c0-0.1-0.1-0.3-0.1-0.5
			C74.2,10.5,74.3,10,74.6,9.9z M74.5,13.7c0.6-0.3,1.2-0.5,2-0.7c0.5-0.1,1.2-0.3,2.1-0.4l0.1,0c0,0,0-0.1,0-0.1c0,0,0-0.2-0.1-0.6
			c0-0.1-0.1-0.3-0.2-0.6c-0.1-0.3-0.2-0.5-0.3-0.5c0,0-0.2,0.1-0.5,0.2c-0.4,0.1-0.6,0.2-0.8,0.2c-0.2,0-0.4,0-0.6-0.1
			c-0.2-0.1-0.3-0.2-0.3-0.4c0-0.1,0-0.2,0-0.3l0-0.2l0.2-0.2c0.1-0.1,0.3-0.2,0.6-0.2c0.3-0.1,0.5-0.2,0.6-0.2h1.2l0.1,0.3
			l-0.2,0.2c-0.1,0-0.2,0-0.2,0c-1,0-1.6,0.2-1.8,0.6c0.1,0.2,0.3,0.2,0.6,0.2c0.1,0,0.3-0.1,0.8-0.3c0.4-0.2,0.6-0.3,0.6-0.3
			c0,0,0,0,0,0c0.1,0,0.3,0.2,0.4,0.5c0.3,0.9,0.5,1.7,0.5,2.3c0,0.6-0.1,1.2-0.4,1.7c-0.3,0.6-0.8,1.1-1.3,1.5
			c-0.3,0.2-0.9,0.3-1.9,0.3c-0.1,0-0.4,0-0.7-0.1c-0.3-0.1-0.5-0.1-0.7-0.2c-0.2-0.1-0.4-0.2-0.5-0.3c-0.1-0.1-0.2-0.2-0.3-0.4
			c-0.1-0.2-0.1-0.4-0.1-0.5C73.2,14.5,73.7,14.1,74.5,13.7z M71.5,9.2c0.2,0,0.5,0,0.9,0.1c0.4,0.1,0.7,0.1,0.8,0.2l-0.1,0.1
			l-1.5,0.1c0,0,0,0-0.1,0.1l1.1,0.5c0.5,0.2,0.8,0.5,0.8,0.8c0,0.2-0.1,0.4-0.2,0.5c-0.1,0.1-0.4,0.1-0.8,0.3
			c-0.5,0.1-0.7,0.2-0.8,0.2c0,0,0,0-0.1,0c0,0,0,0-0.1,0c-0.1,0-0.2,0.1-0.4,0.3c-0.1-0.1-0.2-0.2-0.2-0.2c0-0.3,0.5-0.6,1.4-0.7
			c0.1,0,0.2,0,0.3-0.1c0,0,0.1-0.1,0.2-0.2c-0.1-0.1-0.2-0.3-0.4-0.3c-0.2-0.1-0.5-0.2-1-0.4c-0.5-0.2-0.7-0.4-0.7-0.6
			C70.6,9.4,70.9,9.2,71.5,9.2z M68.7,9.7c0.2,0.2,0.3,0.4,0.3,0.7c0,0.2-0.3,0.3-0.8,0.5c-0.4,0.2-0.8,0.2-1,0.2c0,0,0,0-0.1,0
			c0,0,0,0.1-0.1,0.1c0,0.1,0.2,0.1,0.5,0.2c0.3,0.1,0.4,0.1,0.6,0.1h1.3c0,0,0.2,0,0.5,0.1c0.1,0.1,0.2,0.1,0.2,0.2
			C70.1,11.9,70,12,69.8,12h-1.5c-0.3,0-0.7-0.1-1.1-0.2c-0.5-0.1-0.9-0.3-0.9-0.5c-0.1-0.2-0.1-0.4-0.1-0.7c0-0.4,0.2-0.7,0.5-1
			c0.3-0.2,0.7-0.3,1.1-0.3C68.2,9.4,68.5,9.5,68.7,9.7z M59.7,5.1c0.7-0.1,1.4-0.2,2-0.2c1.8,0,3.3,0.4,4.5,1.3
			c0.2,0.1,0.3,0.3,0.5,0.6C66.9,7.1,67,7.3,67,7.5c0,0.4-0.1,0.7-0.4,1c-0.2,0.2-0.5,0.4-0.8,0.6c-0.2,0.1-0.5,0.3-0.9,0.6
			c-0.4,0.2-0.7,0.4-1,0.6c-0.2,0.1-0.7,0.4-1.4,0.8c-0.1,0.1-0.3,0.2-0.6,0.3c0,0-0.1,0.1-0.2,0.2c-0.3,0.1-0.8,0.4-1.6,0.9H60
			c-0.1-0.1-0.1-0.2-0.1-0.3c0-0.2,0.3-0.4,0.9-0.8c0.2-0.1,0.6-0.3,1.2-0.6c0.1-0.1,0.4-0.2,0.7-0.4c1.2-0.6,2.2-1.2,3-1.7
			c0.2-0.1,0.4-0.3,0.6-0.5c0.2-0.3,0.3-0.5,0.3-0.7c0,0-0.1-0.2-0.2-0.4c-0.3-0.6-1-1-2.1-1.3c-0.9-0.2-1.7-0.4-2.6-0.4
			c0,0-0.3,0-1,0c-0.1,0.4-0.2,1.1-0.3,2.1c-0.1,0.6-0.1,1-0.1,1.1V10c0,0.1,0,0.1,0.1,0.1c0,0.1,0,0.3,0,0.4l0,0.4
			c0,0-0.1,0.1-0.2,0.1c-0.2,0-0.3-0.2-0.3-0.7c-0.1-0.3-0.1-0.6-0.1-0.9c0-0.3,0.1-0.9,0.1-1.9c0.1-1.1,0.2-1.6,0.3-1.7V5.6
			c0,0,0,0-0.1,0c-0.2,0-0.5,0.1-0.9,0.2c-0.5,0.1-0.7,0.3-0.7,0.4c0,0.1,0,0.1,0.1,0.2v0.2c-0.3-0.2-0.5-0.3-0.5-0.5
			C58.2,5.6,58.7,5.3,59.7,5.1z M50.1,10c0.1-0.1,0.3-0.3,0.8-0.7c0.4-0.4,0.7-0.6,0.8-0.7c-0.1-0.3-0.1-0.5-0.1-0.8
			c0-0.6,0.1-1.1,0.4-1.6c0.1-0.2,0.4-0.4,0.8-0.7C53.1,5.1,53.4,5,53.6,5c0.7,0,1,0.3,1,0.9c0,0.4-0.1,0.9-0.4,1.2
			c-0.2,0.3-0.5,0.6-0.9,0.9c-0.2,0.1-0.4,0.4-0.8,0.7c0,0-0.1,0-0.1,0c-0.1,0-0.1,0-0.1,0.1V9l0.7,1.4c0,0,0,0,0,0c0,0,0,0,0.1,0
			c0,0,0,0,0,0c0,0,0.3-0.2,0.7-0.5l0.8-0.6h0.2v0.2c0,0.1-0.2,0.3-0.6,0.6c-0.4,0.4-0.7,0.6-0.7,0.6c0.1,0.1,0.3,0.3,0.5,0.4v0.2
			c0,0-0.1,0.1-0.3,0.1c-0.1,0-0.2-0.1-0.4-0.2c-0.2-0.1-0.2-0.2-0.3-0.2c0,0-0.3,0.2-0.8,0.4c-0.6,0.3-1.1,0.5-1.3,0.5
			c-0.8,0-1.2-0.4-1.2-1.2C49.8,10.6,49.9,10.2,50.1,10z M40.8,10.8c0,0,0.2-0.1,0.5-0.2c0.7-0.3,1.2-0.5,1.7-0.6
			c0.2,0,0.3-0.1,0.6-0.2c0.3-0.1,0.5-0.2,0.6-0.2l0.5-0.1c0.2,0,0.3-0.1,0.4-0.2c-0.1-1-0.1-2.2-0.1-3.6c0-0.8,0.1-1.3,0.2-1.3
			c0.1,0,0.2,0.1,0.2,0.1c0.1,0.1,0.1,0.2,0.1,0.4c0,0,0,0,0,0v0c0,0,0,0,0,0c0,0,0,0.3,0,0.9l0,2.8c0,0.3,0,0.7,0.1,1
			c-0.4,0.2-0.9,0.4-1.7,0.6c-0.7,0.2-1.2,0.4-1.3,0.4c-0.7,0.2-1.1,0.4-1.2,0.6c0,0.1,0,0.1,0.1,0.2c0.1,0.1,0.4,0.1,0.9,0.1
			c0.2,0,0.5-0.1,1.1-0.2c0.8-0.2,1.5-0.3,2.1-0.5c0,0.2-0.1,0.3-0.2,0.3c-0.1,0.1-0.5,0.2-1.3,0.4c-0.8,0.2-1.2,0.3-1.3,0.3
			c0,0-0.2,0-0.4,0c-0.2,0-0.4,0-0.4,0c-0.2,0-0.5-0.1-0.8-0.2c-0.3-0.1-0.5-0.3-0.5-0.5C40.6,11.1,40.6,10.9,40.8,10.8z M36.7,9.7
			c0.3-0.2,0.7-0.3,1.1-0.3c0.4,0,0.7,0.1,0.9,0.2c0.2,0.2,0.3,0.4,0.3,0.7c0,0.2-0.3,0.3-0.8,0.5c-0.4,0.2-0.8,0.2-1,0.2
			c0,0,0,0-0.1,0c0,0,0,0.1-0.1,0.1c0,0.1,0.2,0.1,0.5,0.2c0.3,0.1,0.4,0.1,0.6,0.1h1.3c0,0,0.2,0,0.5,0.1c0.1,0.1,0.2,0.1,0.2,0.2
			C40.1,11.9,40,12,39.8,12h-1.5c-0.3,0-0.7-0.1-1.1-0.2c-0.5-0.1-0.9-0.3-0.9-0.5c-0.1-0.2-0.1-0.4-0.1-0.7
			C36.2,10.3,36.4,9.9,36.7,9.7z M32.4,9.3c0.7-0.1,1.2-0.2,1.3-0.3C33.8,9,33.9,8.5,34,7.4c0.1-0.5,0.2-1.2,0.3-2
			c0-0.1,0-0.2,0.1-0.3c0,0,0.1-0.1,0.3-0.2l0.1,0.5c0,0.1,0,0.2-0.1,0.4L34.5,7c0,0.1,0,0.3-0.1,0.5L34.3,9l1.7,0v0.3
			c-0.6,0-1.2,0.1-1.6,0.3c-0.1,0.1-0.2,0.1-0.2,0.2c0,0.1,0,0.4-0.1,0.7c0,0.1,0,0.3,0,0.4c0,0,0,0.1,0,0.3c0,0.2,0,0.2,0,0.3
			c0,0.2-0.1,0.4-0.2,0.5c0,0-0.1,0-0.2-0.1c-0.1-0.3-0.2-0.6-0.2-1c0-0.1,0-0.3,0-0.5c0-0.3,0-0.5,0-0.5c0-0.1,0-0.1-0.1-0.2
			c0,0-0.2,0-0.5,0.1c-0.1,0-0.2,0-0.5,0.1c0,0-0.1,0-0.3,0c0,0-0.1,0-0.2,0.1c0,0,0,0.1,0,0.2c0,0,0,0,0,0h-0.2
			c0,0-0.1-0.1-0.3-0.2c-0.1-0.1-0.2-0.2-0.2-0.2C31.5,9.6,31.8,9.4,32.4,9.3z M28.4,10.4c0.6-0.4,1.1-0.6,1.4-0.6
			c0.1,0,0.3,0.1,0.4,0.2v0.2c-0.1,0.1-0.1,0.1-0.2,0.1c0,0-0.1,0-0.1-0.1c-0.1,0-0.1-0.1-0.1-0.1c-0.1,0-0.4,0.1-0.8,0.3
			c-0.4,0.2-0.6,0.4-0.8,0.5c-0.1,0.1-0.2,0.2-0.2,0.4c0.1,0.1,0.2,0.1,0.3,0.1c0.1,0,0.4-0.1,1-0.3c0.6-0.2,1-0.3,1.1-0.3
			c0.2,0,0.3,0,0.4,0.1c0,0,0.1,0.1,0.2,0.4c0.1,0.2,0.2,0.3,0.3,0.5V12c-0.1,0.1-0.1,0.1-0.2,0.1c0,0-0.2-0.1-0.4-0.4
			c-0.3-0.3-0.4-0.4-0.5-0.4c0,0-0.3,0.1-0.9,0.3c-0.6,0.2-1,0.3-1.2,0.3c-0.1,0-0.3-0.1-0.5-0.2c-0.2-0.1-0.3-0.3-0.3-0.4
			C27.4,11.1,27.7,10.8,28.4,10.4z M23.5,9.7c0.3-0.2,0.7-0.3,1.1-0.3c0.4,0,0.7,0.1,0.9,0.2c0.2,0.2,0.3,0.4,0.3,0.7
			c0,0.2-0.3,0.3-0.8,0.5c-0.4,0.2-0.8,0.2-1,0.2c0,0,0,0-0.1,0c0,0,0,0.1-0.1,0.1c0,0.1,0.2,0.1,0.5,0.2c0.3,0.1,0.4,0.1,0.6,0.1
			h1.3c0,0,0.2,0,0.5,0.1c0.1,0.1,0.2,0.1,0.2,0.2c-0.1,0.1-0.2,0.2-0.4,0.2h-1.5c-0.3,0-0.7-0.1-1.1-0.2c-0.5-0.1-0.9-0.3-0.9-0.5
			C23,11.1,23,10.9,23,10.7C23,10.3,23.2,9.9,23.5,9.7z M19,11.5c0-0.1,0-0.2,0-0.3c0-0.2,0.1-0.6,0.3-1.2c0.1-0.1,0.2-0.3,0.3-0.4
			c0.3-0.2,0.8-0.3,1.6-0.3c0.8,0,1.2,0.1,1.3,0.3v0.2L22.4,10c-0.3-0.1-0.5-0.1-0.7-0.1c0,0,0,0,0,0c-0.2,0-0.4,0-0.5,0h-0.3
			c0,0-0.1,0-0.3,0.1c-0.1,0-0.3,0-0.5,0.1c-0.4,0.2-0.6,0.5-0.7,0.9c0,0.2,0,0.3,0,0.4c0,0,0,0.1,0,0.1c0,0.3,0,0.5,0,0.5
			c-0.1,0-0.2,0-0.3,0.1C19,11.9,19,11.8,19,11.7C19,11.7,19,11.6,19,11.5z M13,6.9c0.5-0.4,1.2-0.8,2.2-1.3c0.5-0.2,0.8-0.4,1-0.5
			c0.4-0.2,0.7-0.2,1.1-0.2c0.1,0,0.2,0,0.2,0c0,0.1,0,0.2-0.1,0.2c-0.8,0.3-1.2,0.5-1.2,0.5c-0.2,0.1-0.4,0.1-0.6,0.2
			c0,0.1-0.1,0.1-0.2,0.2l-0.8,0.4c-1,0.5-1.7,1.1-1.9,1.8c0,0.1-0.1,0.2-0.1,0.4c-0.1,0.2-0.1,0.3-0.1,0.4c0,0.5,0.2,1,0.6,1.4
			c0.4,0.4,0.8,0.6,1.3,0.8c0.3,0.1,0.8,0.1,1.4,0.1c0.1,0,0.4,0,1.1-0.1l2.1-0.2l0.1,0.3c-0.2,0.1-0.4,0.1-0.8,0.2
			c-0.1,0-0.2,0.1-0.3,0.1l-0.8,0.2C17,12,16.6,12,16,12c-0.5,0-0.9,0.1-1.1,0.1c-0.4,0-0.8-0.1-0.9-0.2c-1-0.6-1.6-1.2-1.9-1.8
			c-0.1-0.3-0.2-0.7-0.2-1.2C11.9,8.2,12.2,7.5,13,6.9z M118.2,39.3H0.6V17.5h117.6V39.3z"/>
	</g>
</g>
</svg>
